<svg width="71" height="70" viewBox="0 0 71 70" fill="none" xmlns="http://www.w3.org/2000/svg">
<path opacity="0.5" fill-rule="evenodd" clip-rule="evenodd" d="M70.6886 10.8717C60.101 16.9115 54.8073 24.0082 54.8073 32.162C59.3201 32.766 63.0517 34.9051 66.0023 38.5793C68.953 42.2536 70.4282 46.5066 70.4282 51.3384C70.4282 56.4723 68.9963 60.8008 66.1325 64.3241C63.2686 67.8473 59.6672 69.6089 55.328 69.6089C50.4682 69.6089 46.2592 67.3188 42.7011 62.7386C39.143 58.1584 37.364 52.5968 37.364 46.0536C37.364 26.4241 46.8232 11.0731 65.742 0L70.6886 10.8717ZM33.3246 10.8717C22.6503 16.9115 17.3132 24.0082 17.3132 32.162C21.9127 32.766 25.6877 34.9051 28.6384 38.5793C31.589 42.2536 33.0643 46.5066 33.0643 51.3384C33.0643 56.4723 31.6107 60.8008 28.7034 64.3241C25.7962 67.8473 22.173 69.6089 17.8339 69.6089C12.974 69.6089 8.78678 67.3188 5.27206 62.7386C1.75734 58.1584 0 52.5968 0 46.0536C0 26.4241 9.41585 11.0731 28.2478 0L33.3246 10.8717Z" fill="url(#paint0_linear_1_2000)"/>
<defs>
<linearGradient id="paint0_linear_1_2000" x1="-5.29963e-07" y1="34.8044" x2="70.7017" y2="34.5147" gradientUnits="userSpaceOnUse">
<stop stop-color="#FF7A00"/>
<stop offset="1" stop-color="#FFB039"/>
</linearGradient>
</defs>
</svg>
