<svg width="200" height="198" viewBox="0 0 200 198" fill="none" xmlns="http://www.w3.org/2000/svg">
<path opacity="0.8" fill-rule="evenodd" clip-rule="evenodd" d="M0 166.422C29.9555 149.31 44.933 129.202 44.933 106.1C32.1651 104.388 21.6072 98.3276 13.2589 87.9173C4.91067 77.5069 0.736618 65.4567 0.736618 51.7664C0.736618 37.2204 4.7879 24.9563 12.8906 14.9737C20.9933 4.99119 31.183 0 43.4598 0C57.2099 0 69.1182 6.48856 79.1853 19.4659C89.2523 32.4432 94.2857 48.2011 94.2857 66.7401C94.2857 122.357 67.5226 165.852 13.9955 197.226L0 166.422ZM105.714 166.422C135.915 149.31 151.016 129.202 151.016 106.1C138.002 104.388 127.321 98.3276 118.973 87.9173C110.625 77.5069 106.451 65.4567 106.451 51.7664C106.451 37.2204 110.564 24.9563 118.789 14.9737C127.015 4.99119 137.266 0 149.542 0C163.292 0 175.139 6.48856 185.084 19.4659C195.028 32.4432 200 48.2011 200 66.7401C200 122.357 173.36 165.852 120.078 197.226L105.714 166.422Z" fill="url(#paint0_linear_1_2015)"/>
<defs>
<linearGradient id="paint0_linear_1_2015" x1="200" y1="98.6128" x2="-0.0370092" y2="99.4314" gradientUnits="userSpaceOnUse">
<stop stop-color="#FF7A00"/>
<stop offset="1" stop-color="#FFB039"/>
</linearGradient>
</defs>
</svg>
