<svg width="40" height="40" viewBox="0 0 40 40" fill="none" xmlns="http://www.w3.org/2000/svg">
<circle cx="20" cy="20" r="20" fill="white"/>
<path d="M22.8396 23.55L24.2396 22.15C24.4281 21.9638 24.6667 21.8363 24.9263 21.7831C25.1859 21.7298 25.4554 21.7531 25.7021 21.85L27.4083 22.5313C27.6576 22.6324 27.8713 22.8051 28.0226 23.0276C28.1738 23.25 28.2559 23.5123 28.2583 23.7813V26.9063C28.2569 27.0893 28.2184 27.2701 28.1452 27.4378C28.0721 27.6055 27.9657 27.7567 27.8326 27.8823C27.6995 28.0078 27.5423 28.1051 27.3706 28.1683C27.1988 28.2315 27.0161 28.2593 26.8333 28.25C14.8771 27.5063 12.4646 17.3813 12.0083 13.5063C11.9871 13.316 12.0065 13.1234 12.0651 12.9411C12.1237 12.7588 12.2202 12.591 12.3484 12.4487C12.4765 12.3065 12.6333 12.1929 12.8084 12.1156C12.9836 12.0382 13.1731 11.9989 13.3646 12H16.3833C16.6527 12.0008 16.9157 12.0822 17.1384 12.2337C17.3612 12.3851 17.5336 12.5998 17.6333 12.85L18.3146 14.5563C18.4147 14.8019 18.4403 15.0717 18.388 15.3318C18.3358 15.5919 18.2081 15.8308 18.0208 16.0188L16.6208 17.4188C16.6208 17.4188 17.4271 22.875 22.8396 23.55Z" fill="#2B7AF1"/>
</svg>
