<svg width="40" height="40" viewBox="0 0 40 40" fill="none" xmlns="http://www.w3.org/2000/svg">
<circle cx="20" cy="20" r="20" fill="white"/>
<path d="M28.4025 13H11.5975C11.4391 13.0002 11.2871 13.0609 11.1751 13.1687C11.0631 13.2766 11.0001 13.4228 11 13.5753V14.7327C11 14.7861 11.0601 14.8473 11.1092 14.872L19.9423 19.7282C19.9649 19.7406 19.9905 19.7471 20.0166 19.7468C20.0432 19.7469 20.0694 19.7401 20.0923 19.7271L28.6585 14.8767C28.7066 14.8509 28.8343 14.7825 28.8822 14.751C28.9402 14.7129 29 14.6785 29 14.6103V13.5751C28.9998 13.4226 28.9368 13.2765 28.8248 13.1686C28.7128 13.0608 28.5609 13.0002 28.4025 13V13Z" fill="#2B7AF1"/>
<path d="M28.9255 16.4778C28.9025 16.4652 28.8764 16.4586 28.85 16.4588C28.8235 16.4589 28.7975 16.4658 28.7747 16.4787L23.9271 19.2239C23.9078 19.2348 23.8912 19.2496 23.8787 19.2675C23.8662 19.2853 23.858 19.3056 23.8547 19.3269C23.8515 19.3482 23.8532 19.3699 23.8599 19.3904C23.8666 19.411 23.8779 19.4298 23.8932 19.4456L28.7415 24.4759C28.7554 24.4904 28.7723 24.502 28.7911 24.5099C28.8099 24.5178 28.8302 24.5218 28.8507 24.5218C28.8903 24.5217 28.9282 24.5065 28.9562 24.4796C28.9842 24.4526 29 24.4161 29 24.378V16.6027C29.0002 16.5774 28.9933 16.5525 28.9802 16.5306C28.9671 16.5087 28.9482 16.4904 28.9255 16.4778Z" fill="#2B7AF1"/>
<path d="M22.53 20.1457C22.507 20.1216 22.4761 20.1058 22.4425 20.1009C22.4088 20.0961 22.3745 20.1025 22.3451 20.1191L20.4021 21.2196C20.2882 21.2829 20.1592 21.3166 20.0277 21.3175C19.8963 21.3183 19.7668 21.2862 19.6521 21.2243L17.9421 20.2841C17.9145 20.2689 17.8826 20.2626 17.8511 20.2661C17.8195 20.2696 17.7899 20.2827 17.7666 20.3034L11.273 26.1008C11.256 26.1161 11.2429 26.135 11.2349 26.156C11.2268 26.1771 11.2239 26.1997 11.2265 26.2219C11.2291 26.2442 11.2371 26.2656 11.2498 26.2844C11.2625 26.3032 11.2796 26.3189 11.2997 26.3303C11.4007 26.3874 11.4981 26.4146 11.5973 26.4146H28.2304C28.2595 26.4147 28.288 26.4065 28.3123 26.3911C28.3366 26.3757 28.3557 26.3538 28.3672 26.328C28.3788 26.3024 28.3824 26.2741 28.3775 26.2465C28.3726 26.219 28.3594 26.1934 28.3396 26.173L22.53 20.1457Z" fill="#2B7AF1"/>
<path d="M16.3378 19.6177C16.355 19.6024 16.3682 19.5835 16.3764 19.5623C16.3846 19.5412 16.3875 19.5185 16.3849 19.4961C16.3822 19.4737 16.3742 19.4522 16.3613 19.4334C16.3485 19.4145 16.3312 19.3988 16.3109 19.3876L11.2228 16.5904C11.2001 16.578 11.1744 16.5715 11.1483 16.5717C11.1222 16.5718 11.0965 16.5785 11.074 16.5912C11.0514 16.6039 11.0327 16.622 11.0197 16.6438C11.0068 16.6656 11 16.6903 11 16.7155V24.055C10.9998 24.083 11.0082 24.1105 11.0241 24.134C11.04 24.1575 11.0627 24.1759 11.0894 24.1872C11.1161 24.1984 11.1456 24.2018 11.1743 24.197C11.203 24.1922 11.2296 24.1795 11.2508 24.1603L16.3378 19.6177V19.6177Z" fill="#2B7AF1"/>
</svg>
