<svg width="40" height="41" viewBox="0 0 40 41" fill="none" xmlns="http://www.w3.org/2000/svg">
<circle cx="20" cy="20.1077" r="20" fill="#2B7AF1"/>
<path d="M20 11.25C18.1773 11.2522 16.4299 11.9772 15.141 13.266C13.8522 14.5549 13.1272 16.3023 13.125 18.125C13.1228 19.6145 13.6094 21.0636 14.51 22.25C14.51 22.25 14.6975 22.4969 14.7281 22.5325L20 28.75L25.2744 22.5294C25.3019 22.4963 25.49 22.25 25.49 22.25L25.4906 22.2481C26.3908 21.0623 26.8771 19.6138 26.875 18.125C26.8729 16.3023 26.1478 14.5549 24.859 13.266C23.5701 11.9772 21.8227 11.2522 20 11.25V11.25ZM22.25 21.25L20 19.8181L17.75 21.25L18.125 18.7037L16.25 16.9831L18.875 16.6663L20 14.375L21.195 16.6669L23.75 16.9831L21.875 18.7037L22.25 21.25Z" fill="white"/>
</svg>
