<svg width="16" height="20" viewBox="0 0 16 20" fill="none" xmlns="http://www.w3.org/2000/svg">
<path d="M8.00001 0.375C5.99503 0.377365 4.07286 1.17489 2.65513 2.59262C1.23739 4.01035 0.439873 5.93253 0.437508 7.9375C0.435107 9.57597 0.970307 11.17 1.96101 12.475C1.96101 12.475 2.16726 12.7466 2.20095 12.7858L8.00001 19.625L13.8018 12.7823C13.8321 12.7459 14.039 12.475 14.039 12.475L14.0397 12.4729C15.0299 11.1685 15.5649 9.57521 15.5625 7.9375C15.5601 5.93253 14.7626 4.01035 13.3449 2.59262C11.9272 1.17489 10.005 0.377365 8.00001 0.375V0.375ZM10.475 11.375L8.00001 9.79994L5.52501 11.375L5.93751 8.57412L3.87501 6.68144L6.76251 6.33288L8.00001 3.8125L9.31451 6.33356L12.125 6.68144L10.0625 8.57412L10.475 11.375Z" fill="#F73E3E"/>
</svg>
