<svg width="32" height="25" viewBox="0 0 32 25" fill="none" xmlns="http://www.w3.org/2000/svg">
<path d="M3.97729 6.96023C3.97729 6.41108 4.42247 5.96591 4.97161 5.96591H26.8466C27.3958 5.96591 27.8409 6.41108 27.8409 6.96023V6.96023C27.8409 7.50938 27.3958 7.95455 26.8466 7.95455H4.97161C4.42247 7.95455 3.97729 7.50938 3.97729 6.96023V6.96023Z" fill="#111111"/>
<path d="M3.97729 12.9261C3.97729 12.377 4.42247 11.9318 4.97161 11.9318H26.8466C27.3958 11.9318 27.8409 12.377 27.8409 12.9261V12.9261C27.8409 13.4753 27.3958 13.9205 26.8466 13.9205H4.97161C4.42247 13.9205 3.97729 13.4753 3.97729 12.9261V12.9261Z" fill="#111111"/>
<path d="M3.97729 18.8921C3.97729 18.3429 4.42247 17.8977 4.97161 17.8977H26.8466C27.3958 17.8977 27.8409 18.3429 27.8409 18.8921V18.8921C27.8409 19.4412 27.3958 19.8864 26.8466 19.8864H4.97161C4.42246 19.8864 3.97729 19.4412 3.97729 18.8921V18.8921Z" fill="#111111"/>
</svg>
