<svg width="80" height="80" viewBox="0 0 80 80" fill="none" xmlns="http://www.w3.org/2000/svg">
<g clip-path="url(#clip0_1_2448)">
<path d="M79.8458 43.6954C79.1275 36.4706 75.8998 29.6594 70.7569 24.5164C66.3618 20.1215 60.9824 17.2972 55.322 16.0414V12.0713C57.6339 11.4962 59.3523 9.40348 59.3523 6.9161C59.3523 3.98668 56.9692 1.60352 54.0398 1.60352H42.7896C39.8602 1.60352 37.477 3.98668 37.477 6.9161C37.477 9.40333 39.1955 11.496 41.5072 12.0713V16.0525C35.8642 17.3136 30.5025 20.134 26.1199 24.5165C25.1609 25.4756 24.2765 26.4817 23.4669 27.5274C23.4277 27.5244 23.3885 27.5214 23.3485 27.5214H12.2138C11.351 27.5214 10.6513 28.221 10.6513 29.0839C10.6513 29.9469 11.351 30.6465 12.2138 30.6465H21.3408C20.1952 32.5645 19.2714 34.5787 18.5683 36.6522H1.56252C0.699698 36.6522 0 37.3517 0 38.2147C0 39.0777 0.699698 39.7772 1.56252 39.7772H17.6853C17.235 41.754 16.9765 43.7657 16.9098 45.7831H10.0002C9.13733 45.7831 8.43763 46.4827 8.43763 47.3456C8.43763 48.2086 9.13733 48.9082 10.0002 48.9082H16.9596C17.0915 50.9307 17.4167 52.9426 17.9353 54.914H7.81262C6.9498 54.914 6.2501 55.6136 6.2501 56.4766C6.2501 57.3395 6.9498 58.0391 7.81262 58.0391H18.9325C20.4653 62.094 22.8608 65.8945 26.1199 69.1536C31.2678 74.3015 38.0861 77.53 45.3184 78.2446C46.3506 78.3464 47.3836 78.3969 48.4151 78.3969C54.5124 78.3969 60.5322 76.6323 65.6401 73.306C66.3632 72.8351 66.5678 71.8671 66.0968 71.144C65.6259 70.4208 64.6579 70.2163 63.9347 70.6873C52.7538 77.9681 37.7797 76.3939 28.3297 66.9439C17.2417 55.8559 17.2417 37.8146 28.3297 26.7264C39.4175 15.6386 57.4589 15.6386 68.547 26.7264C77.9845 36.1641 79.5673 51.1254 72.3105 62.3009C71.8405 63.0246 72.0463 63.9925 72.7699 64.4623C73.494 64.9323 74.4615 64.7265 74.9313 64.0028C78.8086 58.0316 80.5539 50.8198 79.8458 43.6954ZM40.602 6.91625C40.602 5.70999 41.5833 4.72872 42.7896 4.72872H54.0398C55.246 4.72872 56.2273 5.70999 56.2273 6.91625C56.2273 8.12252 55.246 9.10379 54.0398 9.10379H53.7594H43.0697H42.7896C41.5833 9.10379 40.602 8.12237 40.602 6.91625ZM44.6323 15.5153V12.2288H52.1969V15.5097C49.685 15.2109 47.1437 15.2128 44.6323 15.5153Z" fill="#2B7AF1"/>
<path d="M69.6526 66.4855C69.2401 66.4855 68.8385 66.6527 68.5481 66.9433C68.2559 67.2339 68.0901 67.637 68.0901 68.048C68.0901 68.4589 68.2559 68.862 68.5481 69.1527C68.8385 69.4448 69.2402 69.6105 69.6526 69.6105C70.0635 69.6105 70.4651 69.4448 70.7573 69.1527C71.0479 68.862 71.2151 68.4589 71.2151 68.048C71.2151 67.637 71.0481 67.2339 70.7573 66.9433C70.4651 66.6527 70.0634 66.4855 69.6526 66.4855Z" fill="url(#paint0_linear_1_2448)"/>
<path d="M48.4384 22.5956C35.0729 22.5956 24.1991 33.4692 24.1991 46.8349C24.1991 60.2006 35.0729 71.0742 48.4384 71.0742C61.8039 71.0742 72.6777 60.2006 72.6777 46.8349C72.6777 33.4692 61.8039 22.5956 48.4384 22.5956ZM48.4384 67.9491C36.7959 67.9491 27.3241 58.4772 27.3241 46.8349C27.3241 35.1925 36.7959 25.7206 48.4384 25.7206C60.0809 25.7206 69.5526 35.1925 69.5526 46.8349C69.5526 58.4772 60.0809 67.9491 48.4384 67.9491Z" fill="url(#paint1_linear_1_2448)"/>
<path d="M58.3224 34.7412L50.5832 42.4802C49.936 42.1602 49.208 41.9794 48.4385 41.9794C47.6688 41.9794 46.9409 42.1602 46.2937 42.4802L42.8301 39.0166C42.2198 38.4064 41.2307 38.4064 40.6202 39.0166C40.0101 39.6267 40.0101 40.6161 40.6202 41.2263L44.0839 44.6899C43.7637 45.3371 43.5831 46.0651 43.5831 46.8347C43.5831 49.5119 45.7611 51.6901 48.4385 51.6901C51.1158 51.6901 53.2939 49.5119 53.2939 46.8347C53.2939 46.0651 53.1131 45.3371 52.7931 44.6899L60.3051 37.178L60.5321 36.9509C61.1422 36.3408 61.1422 35.3514 60.5321 34.7412C59.9219 34.131 58.9328 34.131 58.3224 34.7412ZM48.4385 48.5652C47.4844 48.5652 46.7081 47.7889 46.7081 46.8348C46.7081 45.8807 47.4844 45.1045 48.4385 45.1045C49.3925 45.1045 50.1688 45.8807 50.1688 46.8348C50.1688 47.7889 49.3925 48.5652 48.4385 48.5652Z" fill="#2B7AF1"/>
<path d="M65.1447 45.2914H63.697C62.8342 45.2914 62.1345 45.9909 62.1345 46.8539C62.1345 47.7169 62.8342 48.4164 63.697 48.4164H65.1447C66.0075 48.4164 66.7072 47.7169 66.7072 46.8539C66.7072 45.9909 66.0075 45.2914 65.1447 45.2914Z" fill="#2B7AF1"/>
<path d="M33.1796 45.2533H31.7321C30.8692 45.2533 30.1696 45.9528 30.1696 46.8158C30.1696 47.6788 30.8692 48.3783 31.7321 48.3783H33.1796C34.0424 48.3783 34.7421 47.6788 34.7421 46.8158C34.7421 45.9528 34.0424 45.2533 33.1796 45.2533Z" fill="#2B7AF1"/>
<path d="M48.4574 33.1385C49.3202 33.1385 50.0199 32.439 50.0199 31.576V30.1285C50.0199 29.2656 49.3202 28.566 48.4574 28.566C47.5946 28.566 46.8949 29.2656 46.8949 30.1285V31.576C46.8949 32.439 47.5946 33.1385 48.4574 33.1385Z" fill="#2B7AF1"/>
<path d="M48.4193 60.5311C47.5565 60.5311 46.8568 61.2307 46.8568 62.0936V63.5411C46.8568 64.4041 47.5565 65.1036 48.4193 65.1036C49.2821 65.1036 49.9818 64.4041 49.9818 63.5411V62.0936C49.9818 61.2307 49.2821 60.5311 48.4193 60.5311Z" fill="#2B7AF1"/>
<path d="M1.5625 54.9135C1.15156 54.9135 0.748438 55.0806 0.457813 55.3713C0.167188 55.6619 0 56.065 0 56.476C0 56.8885 0.167031 57.29 0.457813 57.5806C0.748594 57.8713 1.15156 58.0385 1.5625 58.0385C1.97344 58.0385 2.37656 57.8713 2.66703 57.5806C2.95766 57.29 3.125 56.8869 3.125 56.476C3.125 56.065 2.95781 55.6619 2.66703 55.3713C2.37656 55.0806 1.97344 54.9135 1.5625 54.9135Z" fill="url(#paint2_linear_1_2448)"/>
</g>
<defs>
<linearGradient id="paint0_linear_1_2448" x1="68.0901" y1="68.048" x2="71.2157" y2="68.0354" gradientUnits="userSpaceOnUse">
<stop stop-color="#FF7A00"/>
<stop offset="1" stop-color="#FFB039"/>
</linearGradient>
<linearGradient id="paint1_linear_1_2448" x1="24.1991" y1="46.8349" x2="72.6867" y2="46.6392" gradientUnits="userSpaceOnUse">
<stop stop-color="#FF7A00"/>
<stop offset="1" stop-color="#FFB039"/>
</linearGradient>
<linearGradient id="paint2_linear_1_2448" x1="-2.34286e-08" y1="56.476" x2="3.12558" y2="56.4633" gradientUnits="userSpaceOnUse">
<stop stop-color="#FF7A00"/>
<stop offset="1" stop-color="#FFB039"/>
</linearGradient>
<clipPath id="clip0_1_2448">
<rect width="80" height="80" fill="white"/>
</clipPath>
</defs>
</svg>
