<svg width="80" height="80" viewBox="0 0 80 80" fill="none" xmlns="http://www.w3.org/2000/svg">
<g clip-path="url(#clip0_1_2393)">
<path d="M72.8741 13.8142C61.8671 10.7983 50.7954 6.10221 40.8559 0.233789C40.3279 -0.0779295 39.6728 -0.0779295 39.145 0.233789C28.9187 6.27081 18.4453 10.7128 7.12582 13.8142C6.39457 14.0144 5.8877 14.6791 5.8877 15.4374V32.632C5.8877 50.3387 14.0563 62.0593 20.9091 68.7735C28.2866 76.0024 36.8803 80 40.0004 80C43.1203 80 51.714 76.0024 59.0915 68.7735C65.9441 62.0595 74.1123 50.3388 74.1123 32.632V15.4372C74.1123 14.6791 73.6054 14.0144 72.8741 13.8142ZM70.7466 32.6318C70.7466 49.1698 63.1277 60.1065 56.7359 66.3693C49.481 73.4779 41.7243 76.6341 40.0004 76.6341C38.2765 76.6341 30.5194 73.4779 23.2644 66.3693C16.8727 60.1063 9.25347 49.1698 9.25347 32.6318V16.7147C20.0781 13.6413 30.1591 9.35205 40.0008 3.63284C49.5967 9.20033 60.1806 13.7028 70.7466 16.7141V32.6318Z" fill="#2B7AF1"/>
<path d="M25.0841 16.5265C24.7435 15.6617 23.7664 15.2368 22.9014 15.5776C19.8952 16.7621 16.8096 17.8524 13.7304 18.8184C13.0286 19.0387 12.5511 19.6887 12.5511 20.424V26.9226C12.5511 27.8519 13.3047 28.6054 14.234 28.6054C15.1632 28.6054 15.9168 27.8519 15.9168 26.9226V21.6538C18.6791 20.7601 21.4385 19.7715 24.1352 18.7088C25 18.3684 25.4249 17.3913 25.0841 16.5265Z" fill="#2B7AF1"/>
<path d="M28.2808 16.8457C28.5065 16.8457 28.7358 16.8002 28.9556 16.7043L28.9865 16.6909C29.8379 16.3177 30.2214 15.3267 29.8483 14.4756C29.4748 13.6242 28.4781 13.239 27.6276 13.6118L27.6005 13.6235C26.7486 13.9956 26.3639 14.9859 26.7359 15.8374C27.012 16.4696 27.6316 16.8457 28.2808 16.8457Z" fill="url(#paint0_linear_1_2393)"/>
<path d="M60.0503 54.263C59.2726 53.7547 58.2298 53.9733 57.7209 54.7512C56.3342 56.8737 54.7073 58.9062 52.8848 60.7917C51.386 62.342 49.762 63.787 48.0578 65.0862C47.3189 65.6497 47.1767 66.7056 47.74 67.4448C48.0714 67.879 48.5725 68.1075 49.0793 68.1075C49.4353 68.1075 49.7939 67.9951 50.0986 67.7626C51.9368 66.3609 53.6884 64.8026 55.3043 63.1311C57.2748 61.093 59.0357 58.893 60.5385 56.5922C61.0471 55.8141 60.8282 54.7712 60.0503 54.263Z" fill="#2B7AF1"/>
<path d="M44.1496 67.7254L44.0531 67.7823C43.2489 68.2481 42.974 69.2774 43.4397 70.0817C43.7517 70.6207 44.3165 70.9217 44.8976 70.9217C45.1835 70.9217 45.4739 70.8487 45.739 70.6948L45.8504 70.6293C46.6524 70.1596 46.9218 69.1289 46.4521 68.3268C45.9821 67.5251 44.9512 67.2562 44.1496 67.7254Z" fill="url(#paint1_linear_1_2393)"/>
<path d="M28.5295 36.5655C27.4962 35.532 26.122 34.9633 24.6604 34.9633C23.1989 34.9633 21.8245 35.5322 20.7908 36.5655C18.6575 38.6992 18.6575 42.1711 20.7908 44.3047L30.7276 54.2412C31.761 55.2744 33.1353 55.8433 34.597 55.8433C36.0587 55.8433 37.4329 55.2743 38.4665 54.2409L59.2104 33.4969C61.3435 31.3627 61.3435 27.8913 59.2101 25.7583C58.1766 24.7249 56.8024 24.1561 55.3405 24.1561C53.8788 24.1561 52.5046 24.725 51.471 25.7583L34.5968 42.6325L28.5295 36.5655ZM53.851 28.1383C54.2487 27.7407 54.7779 27.5217 55.3407 27.5217C55.9038 27.5217 56.4326 27.7407 56.8305 28.1383C57.6516 28.9594 57.6516 30.296 56.8302 31.1174L36.0867 51.8611C35.689 52.2587 35.1598 52.4776 34.597 52.4776C34.0342 52.4776 33.5049 52.2587 33.1071 51.8611L23.1706 41.9248C22.3492 41.1034 22.3492 39.7669 23.1703 38.9458C23.5681 38.5481 24.0973 38.3289 24.6603 38.3289C25.2232 38.3289 25.7521 38.5478 26.1498 38.9455L33.4068 46.2026C33.7226 46.5181 34.1504 46.6955 34.5968 46.6955C35.0432 46.6955 35.471 46.5183 35.7865 46.2026L53.851 28.1383Z" fill="url(#paint2_linear_1_2393)"/>
</g>
<defs>
<linearGradient id="paint0_linear_1_2393" x1="26.5941" y1="15.1577" x2="29.9916" y2="15.1439" gradientUnits="userSpaceOnUse">
<stop stop-color="#FF7A00"/>
<stop offset="1" stop-color="#FFB039"/>
</linearGradient>
<linearGradient id="paint1_linear_1_2393" x1="43.213" y1="69.2081" x2="46.6837" y2="69.194" gradientUnits="userSpaceOnUse">
<stop stop-color="#FF7A00"/>
<stop offset="1" stop-color="#FFB039"/>
</linearGradient>
<linearGradient id="paint2_linear_1_2393" x1="19.1908" y1="39.9997" x2="60.8174" y2="39.7791" gradientUnits="userSpaceOnUse">
<stop stop-color="#FF7A00"/>
<stop offset="1" stop-color="#FFB039"/>
</linearGradient>
<clipPath id="clip0_1_2393">
<rect width="80" height="80" fill="white"/>
</clipPath>
</defs>
</svg>
