<svg width="80" height="80" viewBox="0 0 80 80" fill="none" xmlns="http://www.w3.org/2000/svg">
<g clip-path="url(#clip0_1_2537)">
<path d="M53.4302 51.3059C51.5347 51.3059 49.9927 49.9712 49.9927 48.3307C49.9927 46.6901 51.5347 45.3554 53.4302 45.3554C55.3256 45.3554 56.8677 46.6901 56.8677 48.3307C56.8677 49.1935 57.5673 49.8932 58.4302 49.8932C59.293 49.8932 59.9927 49.1935 59.9927 48.3307C59.9927 45.4675 57.8592 43.06 54.9927 42.4065V41.5939C54.9927 40.7311 54.293 40.0314 53.4302 40.0314C52.5674 40.0314 51.8677 40.7311 51.8677 41.5939V42.4065C49.0011 43.06 46.8677 45.4675 46.8677 48.3307C46.8677 51.6943 49.8116 54.4309 53.4302 54.4309C55.3256 54.4309 56.8677 55.7656 56.8677 57.4062C56.8677 59.0468 55.3256 60.3815 53.4302 60.3815C51.5347 60.3815 49.9927 59.0468 49.9927 57.4062C49.9927 56.5434 49.293 55.8437 48.4302 55.8437C47.5674 55.8437 46.8677 56.5434 46.8677 57.4062C46.8677 60.2695 49.0011 62.677 51.8677 63.3304V64.0054C51.8677 64.8682 52.5674 65.5679 53.4302 65.5679C54.293 65.5679 54.9927 64.8682 54.9927 64.0054V63.3304C57.8592 62.677 59.9927 60.2695 59.9927 57.4062C59.9927 54.0424 57.0488 51.3059 53.4302 51.3059Z" fill="url(#paint0_linear_1_2537)"/>
<path d="M70.5439 42.0118C68.5028 38.8313 65.6272 36.2863 62.228 34.6523C61.45 34.2782 60.5164 34.6057 60.1427 35.3835C59.7688 36.1613 60.0961 37.0948 60.8739 37.4687C66.7975 40.3162 70.6249 46.4004 70.6249 52.9688C70.6249 55.7794 69.9321 58.5668 68.6216 61.0299C68.2163 61.7916 68.5052 62.7379 69.2671 63.1432C69.5008 63.2675 69.7521 63.3266 69.9996 63.3266C70.5586 63.3266 71.0994 63.0257 71.3803 62.4977C72.9305 59.5846 73.7499 56.2894 73.7499 52.9688C73.7499 49.0688 72.6413 45.2799 70.5439 42.0118Z" fill="#2B7AF1"/>
<path d="M55.8863 32.6565L55.7811 32.6564C54.9183 32.6564 54.2186 33.3559 54.2186 34.2189C54.2186 35.0818 54.9183 35.7814 55.7811 35.7814L55.8716 35.7815C55.8741 35.7815 55.8764 35.7815 55.8791 35.7815C56.7386 35.7815 57.4374 35.0868 57.4415 34.2264C57.4454 33.3634 56.7491 32.6606 55.8863 32.6565Z" fill="url(#paint1_linear_1_2537)"/>
<path d="M46.001 68.469C40.0776 65.6213 36.2502 59.5371 36.2502 52.9688C36.2502 50.1582 36.9431 47.3709 38.2535 44.9078C38.6588 44.146 38.3699 43.1998 37.6081 42.7945C36.8465 42.3892 35.8999 42.6781 35.4948 43.44C33.9446 46.3532 33.1252 49.6482 33.1252 52.9688C33.1252 56.8688 34.2338 60.6576 36.3312 63.9259C38.3723 67.1063 41.2479 69.6513 44.6471 71.2855C44.8654 71.3905 45.096 71.4401 45.323 71.4401C45.9049 71.4401 46.4634 71.1136 46.7324 70.5543C47.106 69.7765 46.7788 68.8429 46.001 68.469Z" fill="#2B7AF1"/>
<path d="M51.094 70.1563L51.0035 70.156C50.1366 70.1544 49.4379 70.848 49.434 71.7112C49.4299 72.5741 50.1265 73.277 50.9893 73.281L51.094 73.2813C51.9568 73.2813 52.6565 72.5816 52.6565 71.7188C52.6565 70.856 51.9568 70.1563 51.094 70.1563Z" fill="url(#paint2_linear_1_2537)"/>
<path d="M60.5325 27.3699C60.3424 26.9168 60.1094 26.4898 59.8383 26.0937H63.9061C67.8692 26.0937 71.0936 22.8693 71.0936 18.9062C71.0936 14.9431 67.8692 11.7187 63.9061 11.7187H51.3937C52.1891 10.5622 52.6561 9.16295 52.6561 7.65624C52.6561 3.69312 49.4318 0.46875 45.4687 0.46875H7.18749C3.22437 0.46875 0 3.69312 0 7.65624C0 11.6194 3.22437 14.8437 7.18749 14.8437H19.7C18.9045 16.0003 18.4375 17.3995 18.4375 18.9062C18.4375 20.4129 18.9043 21.8121 19.7 22.9687H15.625C11.6619 22.9687 8.43748 26.1931 8.43748 30.1562C8.43748 32.4323 9.50217 34.4634 11.1586 35.7812C9.50217 37.099 8.43748 39.1301 8.43748 41.4062C8.43748 43.6823 9.50217 45.7134 11.1586 47.0312C9.50217 48.349 8.43748 50.3801 8.43748 52.6562C8.43748 54.9322 9.50217 56.9633 11.1586 58.2811C9.50217 59.5989 8.43748 61.63 8.43748 63.9061C8.43748 67.8692 11.6619 71.0936 15.625 71.0936H34.039C38.8899 76.2822 45.7909 79.5313 53.4376 79.5313C68.0841 79.5313 80 67.6153 80 52.9688C80 40.7787 71.7453 30.4817 60.5325 27.3699ZM63.9061 14.8437C66.1463 14.8437 67.9686 16.6662 67.9686 18.9062C67.9686 21.1462 66.1463 22.9687 63.9061 22.9687H53.9061H25.625C23.3848 22.9687 21.5625 21.1462 21.5625 18.9062C21.5625 16.6662 23.3848 14.8437 25.625 14.8437H63.9061ZM7.18749 11.7187C4.94733 11.7187 3.12499 9.89623 3.12499 7.65624C3.12499 5.41624 4.94733 3.59374 7.18749 3.59374H45.4687C47.7088 3.59374 49.5312 5.41624 49.5312 7.65624C49.5312 9.89623 47.7088 11.7187 45.4687 11.7187H7.18749ZM15.625 26.0937H53.9061C54.5355 26.0937 55.1382 26.24 55.6788 26.5018C54.9397 26.4398 54.1926 26.4064 53.4376 26.4064C46.1024 26.4064 39.4524 29.3953 34.6409 34.2187H15.625C13.385 34.2187 11.5625 32.3962 11.5625 30.1562C11.5625 27.9162 13.385 26.0937 15.625 26.0937ZM15.625 37.3437H31.971C30.1973 39.7738 28.8259 42.5148 27.9549 45.4687H15.625C13.3848 45.4687 11.5625 43.6463 11.5625 41.4062C11.5625 39.1662 13.3848 37.3437 15.625 37.3437ZM15.625 48.5937H27.2374C27.0004 50.0176 26.8751 51.4787 26.8751 52.9688C26.8751 54.2416 26.9671 55.4932 27.141 56.7186H15.625C13.3848 56.7186 11.5625 54.8963 11.5625 52.6562C11.5625 50.416 13.3848 48.5937 15.625 48.5937ZM15.625 67.9686C13.3848 67.9686 11.5625 66.1463 11.5625 63.9061C11.5625 61.666 13.3848 59.8436 15.625 59.8436H27.779C28.5674 62.7832 29.8482 65.5227 31.5279 67.9686H15.625ZM53.4376 76.4063C40.5141 76.4063 30.0001 65.8922 30.0001 52.9688C30.0001 40.0454 40.5141 29.5314 53.4376 29.5314C66.361 29.5314 76.875 40.0454 76.875 52.9688C76.875 65.8922 66.361 76.4063 53.4376 76.4063Z" fill="#2B7AF1"/>
</g>
<defs>
<linearGradient id="paint0_linear_1_2537" x1="46.8677" y1="52.7996" x2="59.9952" y2="52.7724" gradientUnits="userSpaceOnUse">
<stop stop-color="#FF7A00"/>
<stop offset="1" stop-color="#FFB039"/>
</linearGradient>
<linearGradient id="paint1_linear_1_2537" x1="54.2186" y1="34.2189" x2="57.4421" y2="34.2055" gradientUnits="userSpaceOnUse">
<stop stop-color="#FF7A00"/>
<stop offset="1" stop-color="#FFB039"/>
</linearGradient>
<linearGradient id="paint2_linear_1_2537" x1="49.434" y1="71.7187" x2="52.6571" y2="71.7053" gradientUnits="userSpaceOnUse">
<stop stop-color="#FF7A00"/>
<stop offset="1" stop-color="#FFB039"/>
</linearGradient>
<clipPath id="clip0_1_2537">
<rect width="80" height="80" fill="white"/>
</clipPath>
</defs>
</svg>
