<svg width="80" height="80" viewBox="0 0 80 80" fill="none" xmlns="http://www.w3.org/2000/svg">
<g clip-path="url(#clip0_1_2570)">
<path d="M71.0938 0H23.5938C21.0091 0 18.9062 2.10281 18.9062 4.6875V10.135C18.7311 10.2116 18.5669 10.3172 18.4264 10.4577L4.67641 24.2077C4.37797 24.5063 4.22297 24.9055 4.2225 25.3116C4.22125 25.3119 4.22 25.3122 4.21875 25.3127V75.3127C4.21875 77.8973 6.32156 80.0002 8.90625 80.0002H56.4062C58.9909 80.0002 61.0938 77.8973 61.0938 75.3127V70.0002H71.0938C73.6784 70.0002 75.7812 67.8973 75.7812 65.3127V4.6875C75.7812 2.10281 73.6784 0 71.0938 0ZM47.2855 10H43.6752C42.8878 8.51469 41.3261 7.5 39.5312 7.5C36.9466 7.5 34.8438 9.60281 34.8438 12.1875V21.3992C34.8438 22.262 35.5434 22.9617 36.4062 22.9617C37.2691 22.9617 37.9688 22.262 37.9688 21.3992V12.1875C37.9688 11.3259 38.6697 10.625 39.5312 10.625C40.3928 10.625 41.0938 11.3259 41.0938 12.1875V22.6492C41.0938 25.2339 38.9909 27.3367 36.4062 27.3367C33.8216 27.3367 31.7188 25.2339 31.7188 22.6492V10.9375C31.7188 6.62969 35.2234 3.125 39.5312 3.125C43.5217 3.125 46.8206 6.13281 47.2855 10ZM23.5938 3.125H31.887C30.0667 4.90656 28.8656 7.31609 28.6366 10H22.0312V4.6875C22.0312 3.82594 22.7322 3.125 23.5938 3.125ZM17.9688 15.3348V21.0156C17.9688 22.5233 16.742 23.75 15.2344 23.75H9.55359L17.9688 15.3348ZM72.6562 65.3125C72.6562 66.1741 71.9553 66.875 71.0938 66.875H61.0938V36.5889C61.0938 35.7261 60.3941 35.0264 59.5312 35.0264C58.6684 35.0264 57.9688 35.7261 57.9688 36.5889V75.3125C57.9688 76.1741 57.2678 76.875 56.4062 76.875H8.90625C8.04469 76.875 7.34375 76.1741 7.34375 75.3125V26.875H15.2344C18.4653 26.875 21.0938 24.2466 21.0938 21.0156V13.125H28.5938V22.6492C28.5938 26.957 32.0984 30.4617 36.4062 30.4617C40.7141 30.4617 44.2188 26.957 44.2188 22.6492V13.125H56.4062C57.2678 13.125 57.9688 13.8259 57.9688 14.6875V24.0889C57.9688 24.9517 58.6684 25.6514 59.5312 25.6514C60.3941 25.6514 61.0938 24.9517 61.0938 24.0889V14.6875C61.0938 12.1028 58.9909 10 56.4062 10H50.4258C50.1967 7.31609 48.9956 4.90656 47.1753 3.125H71.0938C71.9553 3.125 72.6562 3.82594 72.6562 4.6875V65.3125Z" fill="#2B7AF1"/>
<path d="M16.5723 53.0475H48.74C49.6028 53.0475 50.3025 52.3478 50.3025 51.485C50.3025 50.6222 49.6028 49.9225 48.74 49.9225H46.8848V43.8191C46.8848 42.9563 46.1851 42.2566 45.3223 42.2566H39.3848V38.6471C39.3848 37.7842 38.6851 37.0846 37.8223 37.0846H31.8848V34.4949C31.8848 33.6321 31.1851 32.9324 30.3223 32.9324H22.8223C21.9595 32.9324 21.2598 33.6321 21.2598 34.4949V49.9224H18.1348V34.4949C18.1348 33.6321 17.4351 32.9324 16.5723 32.9324C15.7095 32.9324 15.0098 33.6321 15.0098 34.4949V51.4849C15.0098 52.3478 15.7095 53.0475 16.5723 53.0475ZM43.7598 45.3816V49.9225H39.3848V45.3816H43.7598ZM36.2598 40.2097V43.8192V49.9227H31.8848V40.2099H36.2598V40.2097ZM24.3848 36.0575H28.7598V38.6472V49.9225H24.3848V36.0575Z" fill="#2B7AF1"/>
<path d="M48.8233 63.7451H16.4894C15.6266 63.7451 14.9269 64.4448 14.9269 65.3076C14.9269 66.1704 15.6266 66.8701 16.4894 66.8701H48.8233C49.6861 66.8701 50.3858 66.1704 50.3858 65.3076C50.3858 64.4448 49.6861 63.7451 48.8233 63.7451Z" fill="url(#paint0_linear_1_2570)"/>
<path d="M48.8233 57.4951H22.8223C21.9595 57.4951 21.2598 58.1948 21.2598 59.0576C21.2598 59.9204 21.9595 60.6201 22.8223 60.6201H48.8231C49.6859 60.6201 50.3856 59.9204 50.3856 59.0576C50.3856 58.1948 49.6861 57.4951 48.8233 57.4951Z" fill="url(#paint1_linear_1_2570)"/>
<path d="M16.4891 60.6204C16.9 60.6204 17.3031 60.4532 17.5936 60.1625C17.8842 59.8719 18.0516 59.4688 18.0516 59.0579C18.0516 58.6469 17.8844 58.2438 17.5936 57.9532C17.3031 57.6627 16.9 57.4954 16.4891 57.4954C16.078 57.4954 15.6749 57.6625 15.3844 57.9532C15.0938 58.2438 14.9266 58.6469 14.9266 59.0579C14.9266 59.4688 15.0936 59.8719 15.3844 60.1625C15.6749 60.453 16.078 60.6204 16.4891 60.6204Z" fill="url(#paint2_linear_1_2570)"/>
<path d="M48.8233 69.9951H16.4892C15.6264 69.9951 14.9267 70.6948 14.9267 71.5576C14.9267 72.4204 15.6264 73.1201 16.4892 73.1201H48.8233C49.6861 73.1201 50.3858 72.4204 50.3858 71.5576C50.3858 70.6948 49.6861 69.9951 48.8233 69.9951Z" fill="url(#paint3_linear_1_2570)"/>
<path d="M59.5312 28.7766C59.1203 28.7766 58.7172 28.9438 58.4266 29.2344C58.1359 29.5251 57.9688 29.9282 57.9688 30.3391C57.9688 30.75 58.1358 31.1532 58.4266 31.4438C58.7172 31.7343 59.1203 31.9016 59.5312 31.9016C59.9422 31.9016 60.3453 31.7344 60.6358 31.4438C60.9264 31.1532 61.0938 30.75 61.0938 30.3391C61.0938 29.9282 60.9266 29.5251 60.6358 29.2344C60.3453 28.9438 59.9422 28.7766 59.5312 28.7766Z" fill="url(#paint4_linear_1_2570)"/>
</g>
<defs>
<linearGradient id="paint0_linear_1_2570" x1="14.9269" y1="65.3076" x2="50.3187" y2="63.6871" gradientUnits="userSpaceOnUse">
<stop stop-color="#FF7A00"/>
<stop offset="1" stop-color="#FFB039"/>
</linearGradient>
<linearGradient id="paint1_linear_1_2570" x1="21.2598" y1="59.0576" x2="50.3503" y2="57.9635" gradientUnits="userSpaceOnUse">
<stop stop-color="#FF7A00"/>
<stop offset="1" stop-color="#FFB039"/>
</linearGradient>
<linearGradient id="paint2_linear_1_2570" x1="14.9266" y1="59.0579" x2="18.0522" y2="59.0452" gradientUnits="userSpaceOnUse">
<stop stop-color="#FF7A00"/>
<stop offset="1" stop-color="#FFB039"/>
</linearGradient>
<linearGradient id="paint3_linear_1_2570" x1="14.9267" y1="71.5576" x2="50.3187" y2="69.9371" gradientUnits="userSpaceOnUse">
<stop stop-color="#FF7A00"/>
<stop offset="1" stop-color="#FFB039"/>
</linearGradient>
<linearGradient id="paint4_linear_1_2570" x1="57.9687" y1="30.3391" x2="61.0943" y2="30.3265" gradientUnits="userSpaceOnUse">
<stop stop-color="#FF7A00"/>
<stop offset="1" stop-color="#FFB039"/>
</linearGradient>
<clipPath id="clip0_1_2570">
<rect width="80" height="80" fill="white"/>
</clipPath>
</defs>
</svg>
