<svg width="50" height="50" viewBox="0 0 50 50" fill="none" xmlns="http://www.w3.org/2000/svg">
<path d="M43.9961 47.7223C43.852 47.714 43.7037 47.7066 43.5583 47.6989C43.8236 47.1231 43.4787 46.3137 42.8527 46.1613C41.0157 45.7132 39.1233 45.9451 37.2284 45.3812C34.1877 44.4763 31.3566 42.8234 28.7435 41.0342C23.582 37.4995 18.0697 30.9615 25.2075 26.3245C26.052 25.7763 25.8067 24.137 24.6557 24.2514C22.8644 24.4299 21.0702 24.5269 19.2736 24.6291C20.2241 24.0899 20.9952 22.8291 21.592 22.083C22.797 20.5762 24.1816 19.9738 26.0881 19.8577C27.2837 19.7849 27.4607 18.1985 26.3635 17.7889C26.1565 17.7116 25.9557 17.3937 25.761 17.2569C25.301 16.9336 24.8298 16.6816 24.32 16.4486C23.8485 16.2332 23.3661 16.0449 22.8826 15.859C25.2775 15.0165 26.7825 12.1083 29.6697 11.9803C30.7194 11.9338 31.1835 10.7301 30.4985 9.94465C29.7644 9.10294 29.2165 8.22855 28.609 7.3956C30.1132 7.32176 31.6142 7.39188 33.1184 7.63438C33.6298 7.71699 34.0652 6.95336 33.5037 6.70449C31.2532 5.70712 28.8053 5.59504 26.4099 5.22849C25.0386 5.01866 24.3409 6.62852 25.478 7.47767C26.3906 8.15923 26.9965 9.06681 27.6116 9.97945C26.6488 10.2764 25.7529 10.7285 24.8658 11.3904C23.5663 12.3601 21.9572 13.3707 21.0104 14.6967C20.6989 15.1331 20.9579 15.7472 21.3926 15.9812C21.4111 16.0916 21.4667 16.1947 21.5779 16.2595C22.1663 16.6024 22.7657 16.9251 23.3551 17.2664C23.4778 17.3374 23.8984 17.5961 24.2947 17.8627C22.8907 18.0718 21.6231 18.604 20.4964 19.6745C19.898 20.2429 19.4034 20.9273 18.8635 21.551C18.1743 22.3473 17.3951 22.8033 17.2528 23.9067C17.1797 24.4737 17.7465 24.8273 18.2091 24.8796C18.2902 24.8889 18.3665 24.869 18.4456 24.8655C18.0749 25.2538 18.2315 26.0385 18.9254 26.0783C19.8265 26.1301 20.7269 26.1803 21.6267 26.2377C17.339 30.4749 19.7626 36.3584 24.3325 40.7136C26.0058 42.3081 29.7814 45.2524 33.6807 47.1852C21.1607 46.3206 7.5723 43.7341 3.55865 30.3442C1.23113 22.5789 5.08815 14.1447 10.3499 8.64768C13.1246 5.74882 16.6777 3.83006 20.5306 2.9416C25.1222 1.88261 28.7406 4.00643 32.7464 5.83568C33.7611 6.2989 34.7635 5.12969 33.9587 4.23751C28.3261 -2.00644 18.6651 -0.551164 12.2884 3.46963C4.80021 8.1911 0.196849 17.148 0.00419411 25.9837C-0.19577 35.1637 6.78341 43.2505 14.7684 46.625C24.0957 50.5669 34.1221 50.2299 43.9961 49.6503C45.2165 49.5783 45.2178 47.7916 43.9961 47.7223Z" fill="#00B2A0"/>
<path d="M49.8099 44.1407C48.8866 41.9994 47.3169 40.1715 45.4919 38.5858C45.5099 34.9076 45.5548 31.2282 45.5232 27.5503C45.5222 27.4198 45.507 27.2987 45.4822 27.1853C45.6141 25.8023 45.5123 24.4548 45.2758 23.1053C45.2776 23.1042 45.2797 23.1026 45.2815 23.1016C46.1398 22.8657 46.8353 22.1592 47.5156 21.6065C48.0614 21.1629 48.6125 20.7129 49.127 20.2282C49.2314 20.1424 49.3299 20.0489 49.4259 19.9552C50.9147 18.4956 48.6558 16.2064 47.1634 17.6531C46.9405 17.8691 46.7024 18.0677 46.4643 18.2654C46.3066 18.396 46.1464 18.5238 45.9869 18.6518C45.902 18.7195 45.8169 18.787 45.7315 18.8542C45.9623 18.6717 45.5376 19.0043 45.5407 19.0019C45.2037 19.2635 44.8333 19.5137 44.4871 19.7886C44.2449 18.9419 43.9384 18.0499 43.4742 17.3477C43.8551 17.166 44.2214 16.9655 44.5485 16.7317C45.9083 15.7609 47.1002 14.0807 46.4494 12.3104C46.0667 11.2695 45.3327 10.5297 44.4117 9.95391C44.2091 9.82721 43.9833 9.71087 43.7609 9.59374C43.6291 9.35868 43.4821 9.13078 43.2986 8.92175C43.2106 8.82135 43.1216 8.74459 43.0331 8.66225C43.067 8.38655 42.9049 8.08747 42.5642 8.10102C42.4214 8.10659 42.2815 8.10394 42.1408 8.10288C41.7782 7.98255 41.4187 7.98202 41.0674 8.06994C39.93 8.02133 38.8615 8.03541 37.8625 8.94433C37.1931 9.5531 36.8971 10.3369 36.89 11.1765C35.9526 13.4358 35.6989 16.2215 38.0971 17.5201C38.4874 17.7315 38.9108 17.8608 39.3447 17.9501C39.0949 18.8149 38.9066 19.6861 38.7568 20.5645C37.1983 20.9137 35.5817 21.815 34.266 22.3608C32.335 22.9727 33.1382 26.0092 35.1034 25.4514C36.2147 25.1359 37.2824 24.6798 38.354 24.2474C38.3055 25.095 38.2783 25.9521 38.2676 26.8214C38.2653 27.0108 38.3201 27.2217 38.4041 27.4212C38.1264 28.2871 37.8392 29.2695 37.652 30.2348C37.403 31.1155 37.1498 31.9955 36.8767 32.8694C34.2362 31.4016 30.748 29.8693 28.4816 31.3912C28.4751 31.3822 28.4675 31.3737 28.4607 31.3647C27.6358 30.2478 25.9092 31.1899 26.5825 32.4821C30.8107 40.5991 39.1977 45.1509 47.828 46.7642C49.4275 47.0627 50.4427 45.608 49.8099 44.1407ZM30.929 34.2768C31.225 34.3432 31.5341 34.4441 31.8377 34.5294C31.8001 34.7669 31.8361 35.0149 31.9625 35.2309C31.9909 35.2792 32.0275 35.3228 32.0567 35.3703C31.6753 35.0147 31.2952 34.6572 30.929 34.2768ZM39.5997 34.4638C39.6848 34.4088 39.766 34.3406 39.8383 34.2518C40.3811 33.5886 40.5095 32.8279 40.6173 32.0239C41.0997 30.9931 41.52 29.941 41.8717 28.8682C42.0685 28.8956 42.27 28.911 42.4697 28.9312C42.4603 31.3862 42.4705 33.8412 42.4872 36.2965C41.5224 35.6402 40.545 35.0311 39.5997 34.4638Z" fill="#00B2A0"/>
</svg>
