<svg width="55" height="50" viewBox="0 0 55 50" fill="none" xmlns="http://www.w3.org/2000/svg">
<path d="M54.3617 35.7739C52.2237 35.3821 50.6117 36.7861 48.5931 34.694C48.0656 34.1477 47.3037 34.4557 47.062 35.121C45.3295 39.8962 41.7255 37.5892 40.0741 34.2445C39.7541 33.5971 38.8483 33.6532 38.5152 34.2445C37.3738 37.1933 35.176 37.5565 31.9211 35.334C31.4041 34.8565 30.5561 35.0171 30.3617 35.7687C28.9447 41.2505 23.9929 39.7445 22.4674 35.24C22.3906 35.0131 22.2254 34.903 22.0537 34.8833C21.7066 34.4245 20.9205 34.287 20.6496 34.9305C18.6981 39.5629 15.076 38.8538 12.8215 34.9366C12.4146 34.2297 11.5745 34.4748 11.3077 35.1456C9.41166 39.9113 3.88712 39.8018 3.9855 34.0731C3.9963 33.4386 3.0969 33.3141 2.94481 33.9245C1.16528 41.064 9.43735 42.3021 12.3028 37.0614C15.2626 40.6157 19.7009 41.3451 21.8176 36.5616C23.6234 41.8079 29.5224 42.8398 31.715 37.6197C34.4993 39.5842 37.1517 39.2756 39.2442 36.4846C41.7961 40.3324 46.3433 41.7499 48.3619 37.0019C50.2144 38.3257 51.4434 37.3996 54.1238 37.6265C55.1242 37.7116 55.3527 35.9558 54.3617 35.7739Z" fill="#00B2A0"/>
<path d="M51.0117 43.4668C50.1731 44.922 49.8832 46.226 48.0867 46.9373C45.8754 47.8135 43.6744 45.7229 42.5847 44.0088C42.2087 43.4172 41.2967 43.3034 40.9455 44.0088C39.4063 47.1007 35.9973 46.3457 34.5426 43.3617C34.185 42.6276 32.9756 42.7586 32.827 43.5984C32.0097 48.2241 28.3397 48.7137 25.8817 45.361C26.15 44.4583 24.7506 43.8438 24.369 44.7274C22.3057 49.5069 18.2776 48.973 15.9396 44.7077C15.5338 43.9675 14.6248 44.2271 14.3627 44.9253C12.4626 49.9888 9.50313 47.5801 7.84241 44.0948C7.51896 43.4156 6.5965 43.6508 6.4015 44.2936C5.49393 47.2872 3.99873 47.8461 1.47978 48.6206C1.00541 48.7667 1.07868 49.6361 1.60034 49.5627C4.48653 49.1564 6.06288 48.6141 7.24252 46.3441C9.66602 50.3409 13.0493 51.1572 15.3196 46.9518C18.2633 50.8434 22.992 51.287 25.335 46.657C27.9374 50.3957 32.3019 50.2117 34.0496 46.1376C36.3043 48.9464 39.5861 49.3411 41.8566 46.1977C45.2356 49.7856 52.1461 50.5887 52.3925 43.8626C52.4231 43.0605 51.3828 42.8228 51.0117 43.4668Z" fill="#00B2A0"/>
<path d="M15.5218 7.50507C14.956 7.67895 14.733 8.12751 14.7502 8.5804C10.7416 9.20593 8.14649 13.383 7.83677 17.5845C7.4132 23.3329 12.0366 26.7097 17.0494 26.2809C22.1749 25.8428 25.5092 21.0025 25.3585 15.8007C25.2079 10.605 20.5474 5.95773 15.5218 7.50507ZM16.3564 23.653C12.6773 23.9717 10.2973 21.3478 10.3677 17.5845C10.4415 13.6401 13.3032 11.0391 16.6206 9.99917C16.6813 9.98006 16.7251 9.94738 16.7744 9.9184C20.0083 10.4511 22.4539 11.7506 22.7975 15.8001C23.1543 20.0006 20.2339 23.3163 16.3564 23.653Z" fill="#00B2A0"/>
<path d="M10.8572 7.33132C10.2538 6.63796 9.58528 6.02877 8.90074 5.4276C8.22203 4.83135 7.50216 3.67771 6.54526 3.77205C6.03849 3.822 5.69519 4.16143 5.65987 4.70711C5.59273 5.74267 6.55956 6.25136 7.26279 6.77947C8.06673 7.3828 8.9019 7.92263 9.64805 8.60859C10.4759 9.37008 11.6089 8.19485 10.8572 7.33132Z" fill="#00B2A0"/>
<path d="M5.30918 10.4497C5.63088 10.4907 5.34655 10.4414 5.2616 10.4134C5.13111 10.3699 5.00326 10.3178 4.87569 10.266C4.73119 10.2077 4.58815 10.1448 4.4454 10.0819C4.43577 10.0776 4.43051 10.0755 4.41621 10.0687C4.28018 9.79276 4.04635 9.57048 3.74538 9.4709C3.20796 9.29239 2.39059 8.86602 1.80968 9.05871C1.48127 9.16784 1.1371 9.45486 1.07317 9.83653C1.07317 9.83653 1.07288 9.83808 1.07288 9.83869C1.01216 10.2003 1.03843 10.6708 1.34407 10.9223C1.51426 11.0617 1.71335 11.1604 1.9209 11.2454C1.75276 11.2448 1.8885 11.2532 2.04059 11.2905C2.1483 11.3296 2.25456 11.3697 2.36549 11.4008C2.63289 11.4958 2.89999 11.5923 3.16593 11.6906C3.3186 11.7477 3.47594 11.7526 3.62803 11.7236C4.17479 11.8771 4.77352 12.051 5.30948 12.0165C6.2839 11.9536 6.24215 10.569 5.30918 10.4497Z" fill="#00B2A0"/>
<path d="M3.63998 19.2588C3.23071 19.6211 2.75313 19.905 2.28782 20.1772C2.04728 20.3181 1.79856 20.4639 1.5408 20.5666C1.38638 20.628 1.14058 20.5765 1.48037 20.6421C1.31164 20.6098 1.15167 20.6064 0.983821 20.5873C-0.431102 20.426 -0.302366 23.1242 1.25735 22.7222C1.83184 22.5742 2.41889 21.9952 2.90726 21.6244C3.47388 21.1943 4.03961 20.7241 4.50668 20.1741C5.0406 19.5458 4.24162 18.7258 3.63998 19.2588Z" fill="#00B2A0"/>
<path d="M7.24521 24.6062C6.76588 25.3831 6.32888 26.1883 5.8729 26.9804C5.37869 27.8383 4.54147 28.4781 4.43171 29.5047C4.36165 30.1601 5.04123 30.4847 5.54304 30.3987C6.56913 30.223 7.06976 28.8437 7.44488 27.9503C7.83196 27.0285 8.06987 26.0616 8.37989 25.1109C8.61809 24.3787 7.6139 24.0081 7.24521 24.6062Z" fill="#00B2A0"/>
<path d="M16.9428 27.3986C16.8418 26.8502 16.0388 26.8764 15.9211 27.3986C15.6123 28.7715 15.2506 30.1326 14.9473 31.5067C14.874 31.8384 14.9371 32.2222 15.1861 32.4609C15.1452 32.4032 15.1499 32.4146 15.1998 32.4945C15.4967 33.0068 16.1205 32.9483 16.4282 32.4945C16.1471 32.9088 16.6273 32.2938 16.6445 32.2623C16.7577 32.0579 16.7674 31.8433 16.7794 31.614C16.8045 31.1392 16.8573 30.6656 16.9002 30.1924C16.9846 29.2697 17.1121 28.3171 16.9428 27.3986Z" fill="#00B2A0"/>
<path d="M27.6069 28.2096C26.8727 27.0973 25.7068 26.3833 25.0394 25.2346C24.5826 24.4478 23.5364 25.1332 23.8893 25.9446C24.1952 26.6478 24.6626 27.2317 25.1451 27.8073C25.3754 28.082 25.6113 28.3502 25.8139 28.6487C26.0903 29.0559 26.2039 29.5134 26.7428 29.5927C27.0528 29.6383 27.4066 29.5735 27.5631 29.2397C27.5777 29.2088 27.5923 29.178 27.6066 29.1469C27.7403 28.8626 27.7916 28.4899 27.6069 28.2096Z" fill="#00B2A0"/>
<path d="M31.8788 19.9104C30.6431 19.9792 29.4071 20.0452 28.1714 20.1102C27.0595 20.1688 27.0595 21.8737 28.1714 21.9325C29.4074 21.9979 30.6431 22.0639 31.8788 22.132C33.2356 22.2075 33.2356 19.8355 31.8788 19.9104Z" fill="#00B2A0"/>
<path d="M31.8793 7.09895C30.7583 7.07429 29.8522 8.49614 29.1805 9.32207C28.4586 10.2093 27.8242 11.1709 27.0883 12.0465C26.5261 12.7155 27.3928 13.6419 28.0195 13.0299C28.7616 12.3048 29.4353 11.5079 30.1476 10.751C30.5499 10.3237 30.9661 9.89334 31.4227 9.53047C31.9841 9.08499 32.4251 8.9404 32.6747 8.20141C32.8601 7.65296 32.3831 7.11005 31.8793 7.09895Z" fill="#00B2A0"/>
<path d="M26.4934 1.2963C25.8299 1.74579 25.3873 2.47583 24.9314 3.14329C24.3998 3.92143 23.8945 4.70327 23.2797 5.41296C22.5835 6.21669 23.6665 7.3731 24.4141 6.611C24.9944 6.01907 25.5082 5.37381 26.0118 4.70912C26.5524 3.99573 27.2495 3.34245 27.6944 2.56431C28.141 1.78371 27.2419 0.789458 26.4934 1.2963Z" fill="#00B2A0"/>
<path d="M18.2027 0.226597C17.8793 -0.0755323 17.456 -0.0755323 17.1325 0.226597C16.4976 0.819757 16.7904 1.85532 16.8432 2.64486C16.904 3.55064 16.9691 4.45548 17.047 5.36002C17.1197 6.20352 18.2155 6.20352 18.2882 5.36002C18.3662 4.45517 18.4313 3.55094 18.492 2.64486C18.5448 1.85563 18.8376 0.819449 18.2027 0.226597Z" fill="#00B2A0"/>
</svg>
